<?xml version="1.0" standalone="no"?>
<!DOCTYPE svg PUBLIC "-//W3C//DTD SVG 20010904//EN"
 "http://www.w3.org/TR/2001/REC-SVG-20010904/DTD/svg10.dtd">
<svg version="1.0" xmlns="http://www.w3.org/2000/svg"
 width="300.000000pt" height="300.000000pt" viewBox="0 0 300.000000 300.000000"
 preserveAspectRatio="xMidYMid meet">
<metadata>
Created by potrace 1.10, written by Peter Selinger 2001-2011
</metadata>
<g transform="translate(0.000000,300.000000) scale(0.100000,-0.100000)"
fill="#000000" stroke="none">
<path d="M290 1985 c0 -3 65 -88 143 -188 119 -151 145 -190 149 -224 26 -189
224 -330 412 -293 288 57 393 393 189 602 -195 199 -535 99 -598 -175 l-11
-48 -129 165 c-110 141 -155 187 -155 161z m775 -90 c59 -28 103 -72 137 -138
33 -60 33 -194 0 -254 -58 -110 -149 -167 -266 -167 -115 -1 -203 51 -264 153
-36 62 -43 187 -14 253 37 85 119 156 207 179 53 14 143 3 200 -26z"/>
<path d="M2604 1873 c-49 -54 -108 -118 -131 -143 -22 -25 -50 -56 -62 -70
l-20 -25 -1 27 c0 47 -39 134 -81 182 -25 28 -66 58 -107 78 -60 30 -75 33
-152 32 -64 0 -97 -6 -133 -22 -66 -30 -142 -104 -174 -171 -24 -48 -27 -68
-27 -146 0 -81 3 -96 31 -151 83 -160 268 -230 436 -165 105 41 193 153 205
259 5 44 14 57 165 220 103 112 156 177 150 183 -6 6 -41 -25 -99 -88z m-433
0 c100 -44 162 -144 163 -258 0 -84 -30 -151 -93 -208 -136 -122 -348 -87
-435 72 -85 156 -11 343 161 407 50 19 146 12 204 -13z"/>
<path d="M1290 1285 c0 -13 30 -15 210 -15 180 0 210 2 210 15 0 13 -30 15
-210 15 -180 0 -210 -2 -210 -15z"/>
</g>
</svg>
